<?xml version="1.0"?>
<svg width="362.733" height="512" xmlns="http://www.w3.org/2000/svg" xmlns:svg="http://www.w3.org/2000/svg" xmlns:xlink="http://www.w3.org/1999/xlink">

 <g class="layer">
  <title>Layer 1</title>
  <path d="m33.64,469.88l-33.01,-370.26l362.74,0l-33.05,370.2l-148.54,41.18l-148.14,-41.12z" fill="#ff7f00" id="svg_1"/>
  <path d="m182,479.52l120.03,-33.27l28.24,-316.36l-148.27,0l0,349.63z" fill="#ff7f00" id="svg_2"/>
  <g fill="#ebebeb" id="svg_3">
   <path d="m182,267.22l-60.09,0l-4.15,-46.5l64.24,0l0,-45.42l-113.87,0l1.09,12.19l11.16,125.14l101.62,0l0,-45.41zm0,117.93l-0.2,0.06l-50.57,-13.66l-3.24,-36.22l-45.58,0l6.36,71.3l93.02,25.83l0.21,-0.06l0,-47.25z" fill="#ffffff" id="svg_4"/>
  </g>
  <path d="m35.38,0l23.08,0l0,22.8l21.11,0l0,-22.8l23.08,0l0,69.04l-23.08,0l0,-23.12l-21.11,0l0,23.12l-23.08,0l0,-69.04l0,0zm97.61,22.9l-20.31,0l0,-22.9l63.72,0l0,22.9l-20.33,0l0,46.14l-23.07,0l-0.01,-46.14zm53.52,-22.9l24.06,0l14.81,24.26l14.78,-24.26l24.08,0l0,69.04l-22.99,0l0,-34.22l-15.87,24.55l-0.4,0l-15.89,-24.55l0,34.22l-22.58,0l0,-69.04zm89.21,0l23.08,0l0,46.22l32.46,0l0,22.82l-55.54,0l0,-69.04z" fill="#ffffff" id="svg_5"/>
  <g fill="#fff" id="svg_6">
   <path d="m179.84,267.22l0,45.41l55.92,0l-5.27,58.89l-50.65,13.67l0,47.24l93.1,-25.8l0.68,-7.67l10.67,-119.55l1.11,-12.19l-12.24,0l-93.32,0zm0,-91.91l0,45.41l109.69,0l0.91,-10.21l2.07,-23.02l1.09,-12.18l-113.76,0z" fill="#ffffff" id="svg_7"/>
  </g>
  <image height="0" id="svg_9" width="0" x="699.87" xlink:href="./images/logo.svg" y="40"/>
 </g>
</svg>